#define catvision_width 256
#define catvision_height 276
static unsigned short catvision_bits[] = {
   0xffff, 0xffff, 0xffff, 0xffff, 0xffff, 0xffff, 0xffff, 0xffff, 0xffff,
   0xffff, 0xffff, 0xffff, 0xffff, 0xffff, 0xffff, 0xffff, 0xffff, 0xffff,
   0xffff, 0xffff, 0xffff, 0xffff, 0xffff, 0xffff, 0xffff, 0xffff, 0xffff,
   0xffff, 0xffff, 0xffff, 0xffff, 0xffff, 0xffff, 0xffff, 0xffff, 0xffff,
   0xffff, 0xffff, 0xffff, 0xffff, 0xffff, 0xffff, 0xffff, 0xffff, 0xffff,
   0xffff, 0xffff, 0xffff, 0xffff, 0x7fff, 0x0180, 0xffcc, 0xffff, 0xffff,
   0xffff, 0xffff, 0xffff, 0xffff, 0xfffe, 0x7fff, 0x0008, 0xfec0, 0xffff,
   0xffff, 0xffff, 0x03ff, 0x0180, 0x0800, 0x3000, 0x0000, 0x0000, 0x0000,
   0x0000, 0x0000, 0x0001, 0x0002, 0x0008, 0x0040, 0xfff0, 0xffff, 0xffff,
   0x03ff, 0x0180, 0x0800, 0x3000, 0x0000, 0x0000, 0x0000, 0x0000, 0x0000,
   0x0001, 0x0002, 0x0008, 0x0040, 0xfff0, 0xffff, 0xffff, 0x007f, 0x0180,
   0x0800, 0x2000, 0x0000, 0x0000, 0x0000, 0x0180, 0x8000, 0x0000, 0x0002,
   0x0008, 0x0040, 0xff00, 0xffff, 0xffff, 0x003f, 0x0180, 0x0800, 0x2000,
   0x0000, 0x0000, 0x0000, 0x0000, 0x0000, 0x0000, 0x0002, 0x0008, 0x0040,
   0xfe00, 0xffff, 0xffff, 0x003f, 0x0180, 0x0800, 0x2000, 0x0000, 0x0000,
   0x0000, 0x0000, 0x0000, 0x0000, 0x0002, 0x0008, 0x0040, 0xfe00, 0xffff,
   0xffff, 0x0027, 0x0180, 0x0800, 0x2000, 0xf000, 0x1e08, 0x0460, 0xfc48,
   0xf047, 0x0003, 0x0002, 0x0008, 0x0040, 0xf300, 0xffff, 0xffff, 0x0021,
   0x0180, 0x0800, 0x2000, 0x9c00, 0x7309, 0x0460, 0x804c, 0x1847, 0x0006,
   0x0002, 0x0008, 0x0040, 0xc300, 0xffff, 0xffff, 0x0021, 0x0180, 0x0800,
   0x2000, 0x9c00, 0x7309, 0x0460, 0x804c, 0x1847, 0x0006, 0x0002, 0x0008,
   0x0040, 0xc300, 0xffff, 0x7fff, 0x0020, 0x0180, 0x0800, 0x2000, 0x0600,
   0x0188, 0x0cf0, 0x8046, 0x0843, 0x000c, 0x0002, 0x0008, 0x0040, 0x8300,
   0xffff, 0x3fff, 0x0020, 0x0180, 0x0800, 0x2000, 0x0200, 0x0088, 0x0890,
   0xc042, 0x0c41, 0x0008, 0x0002, 0x0008, 0x0040, 0x0300, 0xfffe, 0x3fff,
   0x0020, 0x0180, 0x0800, 0x2000, 0x0200, 0x0088, 0x0890, 0xc042, 0x0c41,
   0x0008, 0x0002, 0x0008, 0x0040, 0x0300, 0xfffe, 0x0fff, 0x0020, 0x0180,
   0x0800, 0x2000, 0x0200, 0x0088, 0x0998, 0x6043, 0x0c40, 0x0008, 0x0002,
   0x0008, 0x0040, 0x0300, 0xfff8, 0x07ff, 0x0020, 0x0180, 0x0800, 0x2000,
   0x0200, 0x00d8, 0x1908, 0x3041, 0x0c40, 0x0008, 0x0002, 0x0008, 0x0040,
   0x0200, 0xfff0, 0x07ff, 0x0020, 0x0180, 0x0800, 0x2000, 0x0200, 0x00d8,
   0x1908, 0x3041, 0x0c40, 0x0008, 0x0002, 0x0008, 0x0040, 0x0200, 0xfff0,
   0x03ff, 0x0020, 0x0180, 0x0800, 0x2000, 0x0200, 0x00d8, 0x93fc, 0x1041,
   0x0c40, 0x0008, 0x0002, 0x0008, 0x0040, 0x0300, 0xfff0, 0x01ff, 0x0020,
   0x0180, 0x0800, 0x2000, 0x0600, 0x0098, 0xb3fc, 0x1840, 0x0c40, 0x000c,
   0x0002, 0x0008, 0x0040, 0x0300, 0xffe0, 0x01ff, 0x0020, 0x0180, 0x0800,
   0x2000, 0x0600, 0x0098, 0xb3fc, 0x1840, 0x0c40, 0x000c, 0x0002, 0x0008,
   0x0040, 0x0300, 0xffe0, 0x01ff, 0x0020, 0x0180, 0x0800, 0x2000, 0x8c00,
   0x2199, 0xe606, 0x0cc0, 0x0840, 0x0006, 0x0002, 0x0008, 0x0040, 0x0200,
   0xffc0, 0x00ff, 0x0020, 0x0180, 0x0800, 0x2000, 0xf800, 0x3f18, 0x6402,
   0xfcc0, 0xf047, 0x0003, 0x0002, 0x0008, 0x0040, 0x0300, 0xff80, 0x00ff,
   0x0020, 0x0180, 0x0800, 0x2000, 0xf800, 0x3f18, 0x6402, 0xfcc0, 0xf047,
   0x0003, 0x0002, 0x0008, 0x0040, 0x0300, 0xff80, 0x007f, 0x0020, 0x0180,
   0x0800, 0x2000, 0x0000, 0x0000, 0x0000, 0x0000, 0x4000, 0x0000, 0x0002,
   0x0008, 0x0040, 0x0200, 0xff80, 0x003f, 0x0020, 0x0180, 0x0800, 0x2000,
   0x0000, 0x0000, 0x0000, 0x0000, 0x0000, 0x0000, 0x0002, 0x0008, 0x0040,
   0x0200, 0xff00, 0x003f, 0x0020, 0x0180, 0x0800, 0x2000, 0x0000, 0x0000,
   0x0000, 0x0000, 0x0000, 0x0000, 0x0002, 0x0008, 0x0040, 0x0200, 0xff00,
   0x003f, 0x0020, 0x0180, 0x0800, 0x2000, 0x0000, 0x0000, 0x0000, 0x0000,
   0x0000, 0x0000, 0x0002, 0x0008, 0x0040, 0x0200, 0xfe00, 0x003f, 0x0060,
   0x0180, 0x0c00, 0x3000, 0x0000, 0x6000, 0xfd80, 0x087f, 0x8c00, 0xff07,
   0xb39f, 0x0419, 0x03f0, 0x0300, 0xfe00, 0x003f, 0x0060, 0x0180, 0x0c00,
   0x3000, 0x0000, 0x6000, 0xfd80, 0x087f, 0x8c00, 0xff07, 0xb39f, 0x0419,
   0x03f0, 0x0300, 0xfe00, 0xffff, 0xffff, 0xffff, 0xffff, 0xffff, 0xffff,
   0xffff, 0x3fff, 0xffc0, 0xffff, 0xffff, 0xffff, 0xffff, 0xffff, 0xffff,
   0xffff, 0x001f, 0x0020, 0x7fff, 0x9c00, 0x30ff, 0x0000, 0xc000, 0x01ff,
   0xe7c0, 0x0007, 0x0000, 0xbff2, 0xe07c, 0xffff, 0x0200, 0xfc00, 0x001f,
   0x0020, 0x7fff, 0x9c00, 0x30ff, 0x0000, 0xc000, 0x01ff, 0xe7c0, 0x0007,
   0x0000, 0xbff2, 0xe07c, 0xffff, 0x0200, 0xfc00, 0x000f, 0xc020, 0xffff,
   0xfe03, 0x37ff, 0x0000, 0x7c00, 0x01f0, 0x07c0, 0x007c, 0x0000, 0xfe4e,
   0xf87f, 0xffff, 0x0203, 0xfc00, 0x000f, 0xf020, 0xffff, 0xff0f, 0x7fff,
   0x0000, 0x03c0, 0x01f0, 0x07c0, 0x03c0, 0xe000, 0xffff, 0xfcff, 0xffff,
   0x0206, 0xf800, 0x000f, 0xf020, 0xffff, 0xff0f, 0x7fff, 0x0000, 0x03c0,
   0x01f0, 0x07c0, 0x03c0, 0xe000, 0xffff, 0xfcff, 0xffff, 0x0206, 0xf800,
   0x000f, 0x9820, 0xffff, 0xf31b, 0xceff, 0x0007, 0x0070, 0x01f0, 0x07c0,
   0x0e00, 0xfc00, 0xffff, 0xe2ff, 0xffff, 0x020c, 0xf800, 0x000f, 0x0c20,
   0xffff, 0xffb1, 0xffff, 0x001f, 0x001c, 0x01f0, 0x07c0, 0x7e00, 0xff00,
   0xffff, 0xe1ff, 0x7fff, 0x0218, 0xf800, 0x000f, 0x0c20, 0xffff, 0xffb1,
   0xffff, 0x001f, 0x001c, 0x01f0, 0x07c0, 0x7e00, 0xff00, 0xffff, 0xe1ff,
   0x7fff, 0x0218, 0xf800, 0x0007, 0x0620, 0xffff, 0x00e1, 0x0000, 0x80f0,
   0x001f, 0x01f0, 0x07c0, 0xfe00, 0x0381, 0xfe00, 0xc1ef, 0x7fff, 0x0230,
   0xf800, 0x0007, 0x0320, 0x7ffe, 0xffc0, 0xffff, 0x63ff, 0x001e, 0x01f0,
   0x07c0, 0x7e00, 0xffe3, 0xffff, 0x80f7, 0x3fff, 0x0260, 0xf000, 0x0007,
   0x0320, 0x7ffe, 0xffc0, 0xffff, 0x63ff, 0x001e, 0x01f0, 0x07c0, 0x7e00,
   0xffe3, 0xffff, 0x80f7, 0x3fff, 0x0260, 0xf000, 0x0007, 0x0120, 0x7ffc,
   0xff80, 0xffff, 0x1fff, 0x001e, 0x01f0, 0x07c0, 0x7e00, 0xfffc, 0xffff,
   0x807f, 0x1fff, 0x0240, 0xf000, 0x0007, 0x03a0, 0x3ffc, 0xb380, 0x0007,
   0x0700, 0x001e, 0x01f0, 0x07c0, 0x7e00, 0x0170, 0x0000, 0x00e0, 0x1ffe,
   0x03e0, 0xf000, 0x0007, 0x03a0, 0x3ffc, 0xb380, 0x0007, 0x0700, 0x001e,
   0x01f0, 0x07c0, 0x7e00, 0x0170, 0x0000, 0x00e0, 0x1ffe, 0x03e0, 0xf000,
   0x0007, 0x07e0, 0x3ff8, 0xffc0, 0xffff, 0x03ff, 0x003e, 0x01f0, 0x07c0,
   0x7e00, 0xffe0, 0xffff, 0x03ff, 0x1ffe, 0x03f8, 0xf000, 0x0007, 0x1fe0,
   0x3ff8, 0xfff0, 0x807f, 0x00e1, 0x003e, 0x01f0, 0x07c0, 0x7e00, 0x0380,
   0x0000, 0x87f0, 0x3fff, 0x03fc, 0xf000, 0x0007, 0x1fe0, 0x3ff8, 0xfff0,
   0x807f, 0x00e1, 0x003e, 0x01f0, 0x07c0, 0x7e00, 0x0380, 0x0000, 0x87f0,
   0x3fff, 0x03fc, 0xf000, 0x0007, 0x7fe0, 0x7ffc, 0xfff8, 0xffff, 0x007b,
   0x003e, 0x01f0, 0x07c0, 0x7e00, 0xf700, 0xffff, 0xdfff, 0x7fff, 0x03ff,
   0xf000, 0x0007, 0xffe0, 0xffff, 0x37ff, 0x0005, 0x001c, 0x003e, 0x01f0,
   0x07c0, 0x7e00, 0x1c00, 0x0000, 0xfff8, 0xffff, 0x03ff, 0xf000, 0x0007,
   0xffe0, 0xffff, 0x37ff, 0x0005, 0x001c, 0x003e, 0x01f0, 0x07c0, 0x7e00,
   0x1c00, 0x0000, 0xfff8, 0xffff, 0x03ff, 0xf000, 0x0007, 0xffe0, 0xffff,
   0xffff, 0xffff, 0x000f, 0x003e, 0x01f0, 0x07c0, 0x7e00, 0xf800, 0xffff,
   0xffff, 0xffff, 0x03ff, 0xf000, 0x0007, 0xffe0, 0xffff, 0xffff, 0xffff,
   0x0003, 0x003e, 0x01e0, 0x07c0, 0x7e00, 0xe000, 0x3fb5, 0xfff8, 0xffff,
   0x03ff, 0xf000, 0x0007, 0xffe0, 0xffff, 0xffff, 0xffff, 0x0003, 0x003e,
   0x01e0, 0x07c0, 0x7e00, 0xe000, 0x3fb5, 0xfff8, 0xffff, 0x03ff, 0xf000,
   0x0007, 0xffe0, 0xffff, 0xffff, 0xffff, 0x0001, 0x003e, 0x01e0, 0x07c0,
   0x7e00, 0xc000, 0xffff, 0xffff, 0xffff, 0x03ff, 0xf000, 0x0007, 0xffe0,
   0xffff, 0x0fff, 0x6000, 0x0000, 0x003e, 0x01e0, 0x07c0, 0x7e00, 0x8000,
   0x0003, 0xfff8, 0xffff, 0xffff, 0xffff, 0x0007, 0xffe0, 0xffff, 0x0fff,
   0x6000, 0x0000, 0x003e, 0x01e0, 0x07c0, 0x7e00, 0x8000, 0x0003, 0xfff8,
   0xffff, 0xffff, 0xffff, 0xffff, 0xffff, 0xffff, 0xffff, 0x3fff, 0x0000,
   0x003e, 0x01e0, 0x07c0, 0x7e00, 0x0000, 0xfffe, 0xffff, 0xffff, 0x03ff,
   0xf000, 0x0007, 0xffe0, 0xffff, 0x2fff, 0x1800, 0x0000, 0x003e, 0x01e0,
   0x07c0, 0x7e00, 0x0000, 0x0018, 0xfff8, 0xffff, 0x03ff, 0xf000, 0x0007,
   0xffe0, 0xffff, 0x2fff, 0x1800, 0x0000, 0x003e, 0x01e0, 0x07c0, 0x7e00,
   0x0000, 0x0018, 0xfff8, 0xffff, 0x03ff, 0xf000, 0x0007, 0xffe0, 0xffff,
   0xffff, 0x0fff, 0x0000, 0x003e, 0x01e0, 0x07c0, 0x7e00, 0x0000, 0xfff0,
   0xffff, 0xffff, 0x03ff, 0xf000, 0x0007, 0xffe0, 0xffff, 0x0fff, 0x0600,
   0x0000, 0x003e, 0x01e0, 0x07c0, 0x7e00, 0x0000, 0x0060, 0xfff8, 0xffff,
   0x03ff, 0xf000, 0x0007, 0xffe0, 0xffff, 0x0fff, 0x0600, 0x0000, 0x003e,
   0x01e0, 0x07c0, 0x7e00, 0x0000, 0x0060, 0xfff8, 0xffff, 0x03ff, 0xf000,
   0x0007, 0xffe0, 0xffff, 0xffff, 0x03ff, 0x0000, 0x003e, 0x01e0, 0x07c0,
   0x7e00, 0x0000, 0xffc0, 0xffff, 0xffff, 0x03ff, 0xf000, 0x0007, 0xffe0,
   0xffff, 0xffff, 0x01ff, 0x0000, 0x003e, 0x01e0, 0x07c0, 0x7e00, 0x0000,
   0xfe80, 0xbfff, 0x3fff, 0x03ff, 0xf000, 0x0007, 0xffe0, 0xffff, 0xffff,
   0x01ff, 0x0000, 0x003e, 0x01e0, 0x07c0, 0x7e00, 0x0000, 0xfe80, 0xbfff,
   0x3fff, 0x03ff, 0xf000, 0x0007, 0x7fe0, 0x7ffc, 0xe7f8, 0x00ef, 0x0000,
   0x003e, 0x01e0, 0x07c0, 0x7e00, 0x0000, 0xff00, 0x0fff, 0x0ffe, 0x03fe,
   0xf000, 0x0007, 0x1fe0, 0x1ff8, 0xfff0, 0x007f, 0x0000, 0x003e, 0x01e0,
   0x07c0, 0x7e00, 0x0000, 0xff00, 0x03ff, 0x0ffc, 0x02f8, 0xf000, 0x0007,
   0x1fe0, 0x1ff8, 0xfff0, 0x007f, 0x0000, 0x003e, 0x01e0, 0x07c0, 0x7e00,
   0x0000, 0xff00, 0x03ff, 0x0ffc, 0x02f8, 0xf000, 0x0007, 0x07e0, 0x1ff8,
   0x03c0, 0x0030, 0x0000, 0x003e, 0x01e0, 0x07c0, 0x7e00, 0x0000, 0x0600,
   0x01e0, 0x1ffc, 0x02e0, 0xf000, 0x0007, 0x03a0, 0x3ffc, 0xff80, 0x001f,
   0x0000, 0x0000, 0x0000, 0x0000, 0x0000, 0x0000, 0xfc00, 0x00ff, 0x1ffe,
   0x0260, 0xf000, 0x0007, 0x03a0, 0x3ffc, 0xff80, 0x001f, 0x0000, 0x0000,
   0x0000, 0x0000, 0x0000, 0x0000, 0xfc00, 0x00ff, 0x1ffe, 0x0260, 0xf000,
   0x0007, 0x0320, 0x3ffc, 0x2180, 0x0018, 0x0000, 0x0000, 0x0000, 0x0000,
   0x0000, 0x0000, 0x3800, 0x00c0, 0x3ffe, 0x0220, 0xf000, 0x0007, 0x0220,
   0x7ffe, 0xffc0, 0x000f, 0x0000, 0x0000, 0x0000, 0x0000, 0x0000, 0x0000,
   0xf000, 0x81ef, 0x7fff, 0x0210, 0xf000, 0x0007, 0x0220, 0x7ffe, 0xffc0,
   0x000f, 0x0000, 0x0000, 0x0000, 0x0000, 0x0000, 0x0000, 0xf000, 0x81ef,
   0x7fff, 0x0210, 0xf000, 0x0007, 0x0620, 0x7ffe, 0x8060, 0x0006, 0x0000,
   0x0000, 0x0000, 0x0000, 0x0000, 0x0000, 0xf000, 0xc3e7, 0x7fff, 0x0218,
   0xf000, 0x0007, 0x1c20, 0xffff, 0xff31, 0x0003, 0x0000, 0x0000, 0x0000,
   0x0000, 0x0000, 0x0000, 0xe000, 0xc7b1, 0xffff, 0x020c, 0xf000, 0x0007,
   0x1c20, 0xffff, 0xff31, 0x0003, 0x0000, 0x0000, 0x0000, 0x0000, 0x0000,
   0x0000, 0xe000, 0xc7b1, 0xffff, 0x020c, 0xf000, 0x0007, 0xb020, 0xffff,
   0xffff, 0x0003, 0x0000, 0x0000, 0x0000, 0x0000, 0x0000, 0x0000, 0xc000,
   0xef7f, 0xffff, 0x0203, 0xf000, 0x0007, 0xe020, 0xffff, 0x8067, 0x0001,
   0x0000, 0x0000, 0x0000, 0x0000, 0x0000, 0x0000, 0xc000, 0xf300, 0xffff,
   0x0201, 0xf000, 0x0007, 0xe020, 0xffff, 0x8067, 0x0001, 0x0000, 0x0000,
   0x0000, 0x0000, 0x0000, 0x0000, 0xc000, 0xf300, 0xffff, 0x0201, 0xf000,
   0x0007, 0x8020, 0xffff, 0xffc1, 0x0001, 0x0000, 0x0000, 0x0000, 0x0000,
   0x0000, 0x0000, 0x8000, 0xe1ff, 0x7fff, 0x0200, 0xf000, 0x0007, 0x0060,
   0x7fff, 0xc040, 0x0000, 0x0000, 0x0000, 0x0000, 0x0000, 0x0000, 0x0000,
   0x0000, 0xff01, 0x7fff, 0x0311, 0xffe0, 0x0007, 0x0060, 0x7fff, 0xc040,
   0x0000, 0x0000, 0x0000, 0x0000, 0x0000, 0x0000, 0x0000, 0x0000, 0xff01,
   0x7fff, 0x0311, 0xffe0, 0xffff, 0xffff, 0xffff, 0x7fff, 0x0000, 0x00f8,
   0x0000, 0x0000, 0x0000, 0x0000, 0x0000, 0x0000, 0xffff, 0xffff, 0xffff,
   0xffff, 0xf007, 0x007f, 0x0180, 0x6080, 0xc000, 0x3fff, 0x0000, 0x0000,
   0x0000, 0x0000, 0x7ff0, 0x0000, 0x0082, 0x00c0, 0xfe00, 0xf00f, 0xf007,
   0x007f, 0x0180, 0x6080, 0xc000, 0x3fff, 0x0000, 0x0000, 0x0000, 0x0000,
   0x7ff0, 0x0000, 0x0082, 0x00c0, 0xfe00, 0xf00f, 0xf007, 0x003f, 0x0180,
   0x3f80, 0xc000, 0xe001, 0x0003, 0x0000, 0x0000, 0x0000, 0xc03f, 0x0001,
   0x00fe, 0x00c0, 0xfe00, 0xf00f, 0xf007, 0x007f, 0x0180, 0x3100, 0xc000,
   0x0001, 0x000e, 0x0000, 0x0000, 0xe000, 0x4001, 0x0000, 0x00e4, 0x00c0,
   0xfe00, 0xf00f, 0xf007, 0x007f, 0x0180, 0x3100, 0xc000, 0x0001, 0x000e,
   0x0000, 0x0000, 0xe000, 0x4001, 0x0000, 0x00e4, 0x00c0, 0xfe00, 0xf00f,
   0xf007, 0x003f, 0x0180, 0x1f00, 0x8000, 0xc001, 0x003f, 0x0000, 0x0000,
   0x7c00, 0x4000, 0x0000, 0x007c, 0x00c0, 0xfe00, 0xf00f, 0xf007, 0x007f,
   0x0180, 0x1e00, 0x8000, 0xf003, 0x00fd, 0x0000, 0x0000, 0xff00, 0x6003,
   0x0000, 0x0078, 0x0080, 0xfe00, 0xf00f, 0xf007, 0x007f, 0x0180, 0x0e00,
   0x8000, 0xf803, 0x01fd, 0x0000, 0x0000, 0xcf80, 0x600f, 0x0000, 0x0038,
   0x00c0, 0xfe00, 0xf00f, 0xf007, 0x007f, 0x0180, 0x0e00, 0x8000, 0xf803,
   0x01fd, 0x0000, 0x0000, 0xcf80, 0x600f, 0x0000, 0x0038, 0x00c0, 0xfe00,
   0xf00f, 0xf007, 0x007f, 0x0180, 0x0c00, 0x0000, 0xfc02, 0x03f9, 0x0000,
   0x0000, 0xcfc0, 0x201f, 0x0000, 0x0038, 0x0080, 0xfe00, 0xf00f, 0xf007,
   0x003f, 0x0180, 0x0400, 0x0000, 0xfe06, 0x07f9, 0x0000, 0x0000, 0xcff0,
   0x201f, 0x0000, 0x0010, 0x0080, 0xfe00, 0xf00f, 0xf007, 0x003f, 0x0180,
   0x0400, 0x0000, 0xfe06, 0x07f9, 0x0000, 0x0000, 0xcff0, 0x201f, 0x0000,
   0x0010, 0x0080, 0xfe00, 0xf00f, 0xf007, 0x003f, 0x0180, 0x0400, 0x0000,
   0xff04, 0x0ff9, 0x0000, 0x0000, 0xcff8, 0x303f, 0x0000, 0x0030, 0x0080,
   0xfe00, 0xf00f, 0xf007, 0x003f, 0x0180, 0x0200, 0x0000, 0xff0c, 0x1ff9,
   0x0000, 0x0000, 0xcffc, 0x107f, 0x0000, 0x0020, 0x0080, 0xfe00, 0xf00f,
   0xf007, 0x003f, 0x0180, 0x0200, 0x0000, 0xff0c, 0x1ff9, 0x0000, 0x0000,
   0xcffc, 0x107f, 0x0000, 0x0020, 0x0080, 0xfe00, 0xf00f, 0xf007, 0x003f,
   0x0180, 0x0200, 0x0000, 0xff88, 0x3ff9, 0x0000, 0x0000, 0xcffc, 0x187f,
   0x0000, 0x0060, 0x0080, 0xfe00, 0xf00f, 0xf007, 0x007f, 0x0180, 0x0300,
   0x0000, 0xff98, 0x3ff9, 0x0000, 0x0000, 0xcffe, 0x087f, 0x0000, 0x0040,
   0x0080, 0xfe00, 0xf00f, 0xf007, 0x007f, 0x0180, 0x0300, 0x0000, 0xff98,
   0x3ff9, 0x0000, 0x0000, 0xcffe, 0x087f, 0x0000, 0x0040, 0x0080, 0xfe00,
   0xf00f, 0xf007, 0x003f, 0x0180, 0x0100, 0x0000, 0xff90, 0x6ff9, 0x0000,
   0x8000, 0xcfff, 0x0c7f, 0x0000, 0x0040, 0x0080, 0xfe00, 0xf00f, 0xf007,
   0x003f, 0x0180, 0x0100, 0x0000, 0xffb0, 0x4ff9, 0x0000, 0xc000, 0xcffd,
   0x04ff, 0x0000, 0x00c0, 0x0080, 0xfe00, 0xf00f, 0xf007, 0x003f, 0x0180,
   0x0100, 0x0000, 0xffb0, 0x4ff9, 0x0000, 0xc000, 0xcffd, 0x04ff, 0x0000,
   0x00c0, 0x0080, 0xfe00, 0xf00f, 0xf007, 0x007f, 0x0180, 0x0180, 0x0000,
   0xffe0, 0xdff9, 0x0001, 0x4000, 0xcffc, 0x06ff, 0x0000, 0x0080, 0x0080,
   0xfe00, 0xf00f, 0xf007, 0x003f, 0x0180, 0x0080, 0x0000, 0xffe0, 0x8ff9,
   0x0001, 0x6000, 0xcffc, 0x02ff, 0x0000, 0x0080, 0x0080, 0xfe00, 0xf00f,
   0xf007, 0x003f, 0x0180, 0x0080, 0x0000, 0xffe0, 0x8ff9, 0x0001, 0x6000,
   0xcffc, 0x02ff, 0x0000, 0x0080, 0x0080, 0xfe00, 0xf00f, 0xf007, 0x007f,
   0x0180, 0x00c0, 0x0000, 0xffc0, 0x8ff9, 0x0003, 0x2000, 0xcff8, 0x037f,
   0x0000, 0xff80, 0xffff, 0xffff, 0xffff, 0xffff, 0xffff, 0xffff, 0x00ff,
   0x0000, 0xff80, 0x0ff9, 0x0002, 0x3000, 0xcff8, 0x01ff, 0x0000, 0x0780,
   0x26c0, 0xff70, 0xf0ff, 0xffff, 0xffff, 0xffff, 0x00ff, 0x0000, 0xff80,
   0x0ff9, 0x0002, 0x3000, 0xcff8, 0x01ff, 0x0000, 0x0780, 0x26c0, 0xff70,
   0xf0ff, 0xf007, 0x007f, 0x0180, 0x0040, 0x0000, 0xff00, 0x0ff9, 0x0006,
   0x1000, 0xcff8, 0x00ff, 0x0000, 0x0180, 0x0080, 0xfe00, 0xf00f, 0xb007,
   0x007f, 0x0180, 0x0040, 0x0000, 0xfe00, 0x07f9, 0x0004, 0x1800, 0xcff0,
   0x007f, 0x0000, 0x0100, 0x0080, 0xfe00, 0xf00f, 0xb007, 0x007f, 0x0180,
   0x0040, 0x0000, 0xfe00, 0x07f9, 0x0004, 0x1800, 0xcff0, 0x007f, 0x0000,
   0x0100, 0x0080, 0xfe00, 0xf00f, 0xf007, 0x007f, 0x0180, 0x0040, 0x0000,
   0xfe00, 0x03f9, 0x0004, 0x0800, 0xcfe0, 0x003f, 0x0000, 0x0100, 0x0080,
   0xfe00, 0xf00f, 0xf007, 0x007f, 0x0180, 0x0040, 0x0000, 0xfc00, 0x01f9,
   0x000c, 0x0800, 0xcfc0, 0x001f, 0x0000, 0x0300, 0x0080, 0xfe00, 0xf00f,
   0xf007, 0x007f, 0x0180, 0x0040, 0x0000, 0xfc00, 0x01f9, 0x000c, 0x0800,
   0xcfc0, 0x001f, 0x0000, 0x0300, 0x0080, 0xfe00, 0xf00f, 0xf007, 0x007f,
   0x0180, 0x0060, 0x0000, 0xf000, 0x00f9, 0x0008, 0x0c00, 0xcf80, 0x000f,
   0x0000, 0x0300, 0x0080, 0xfe00, 0xf00f, 0xf007, 0x007f, 0x0180, 0x0020,
   0x0000, 0xe000, 0x003f, 0x0008, 0x0400, 0xfe00, 0x0007, 0x0000, 0x0200,
   0x0080, 0xfe00, 0xf00f, 0xf007, 0x007f, 0x0180, 0x0020, 0x0000, 0xe000,
   0x003f, 0x0008, 0x0400, 0xfe00, 0x0007, 0x0000, 0x0200, 0x0080, 0xfe00,
   0xf00f, 0xf007, 0x007f, 0x0180, 0x0020, 0x0000, 0x8000, 0x000f, 0x0008,
   0x0400, 0xf000, 0x0001, 0x0000, 0x0200, 0x0080, 0xfe00, 0xf00f, 0xf007,
   0x007f, 0x0180, 0x0020, 0x0000, 0x0000, 0x007c, 0x0018, 0x0400, 0x3c00,
   0x0000, 0x0000, 0x0200, 0x0080, 0xfe00, 0xf00f, 0xf007, 0x007f, 0x0180,
   0x0020, 0x0000, 0x0000, 0x007c, 0x0018, 0x0400, 0x3c00, 0x0000, 0x0000,
   0x0200, 0x0080, 0xfe00, 0xf00f, 0xf007, 0x007f, 0x0180, 0x0020, 0x0000,
   0x0000, 0xffe0, 0x001f, 0x0400, 0x07c0, 0x0000, 0x0000, 0x0200, 0x0080,
   0xfe00, 0xf00f, 0xf007, 0x007f, 0x0180, 0x0020, 0x0000, 0x0000, 0xf800,
   0x0003, 0xfc00, 0x007f, 0x0000, 0x0000, 0x0600, 0x0080, 0xfe00, 0xf00f,
   0xf007, 0x007f, 0x0180, 0x0020, 0x0000, 0x0000, 0xf800, 0x0003, 0xfc00,
   0x007f, 0x0000, 0x0000, 0x0600, 0x0080, 0xfe00, 0xf00f, 0xf007, 0x007f,
   0x0180, 0x0020, 0x0000, 0x0000, 0x0000, 0x0000, 0x0000, 0x0000, 0x0000,
   0x0000, 0x0600, 0x0080, 0xfe00, 0xf00f, 0xf007, 0x007f, 0x0180, 0x0020,
   0x0000, 0x0000, 0x0000, 0x0000, 0x0000, 0x0000, 0x0000, 0x0000, 0x0600,
   0x0080, 0xfe00, 0xf00f, 0xf007, 0x007f, 0x0180, 0x0020, 0x0000, 0x0000,
   0x0000, 0x0000, 0x0000, 0x0000, 0x0000, 0x0000, 0x0600, 0x0080, 0xfe00,
   0xf00f, 0xf007, 0x003f, 0x0180, 0x0020, 0x0000, 0x0000, 0x0000, 0x0000,
   0x0000, 0x0000, 0x0000, 0x0000, 0x0400, 0x0080, 0xfe00, 0xf00f, 0xf007,
   0x003f, 0x0180, 0x0030, 0x0000, 0x0000, 0x0000, 0x0000, 0x0000, 0x0000,
   0x0000, 0x0000, 0x0400, 0x0080, 0xfe00, 0xf00f, 0xf007, 0x003f, 0x0180,
   0x0030, 0x0000, 0x0000, 0x0000, 0x0000, 0x0000, 0x0000, 0x0000, 0x0000,
   0x0400, 0x0080, 0xfe00, 0xf00f, 0xf007, 0x003f, 0x0180, 0x0030, 0x0000,
   0x0000, 0x0000, 0x0000, 0x0000, 0x0000, 0x0000, 0x0000, 0x0400, 0x0080,
   0xfe00, 0xf00f, 0xf007, 0x003f, 0x0180, 0x0030, 0x0000, 0x0000, 0x0000,
   0x0000, 0x0000, 0x0000, 0x0000, 0x0000, 0x0400, 0x0080, 0xfe00, 0xf00f,
   0xf007, 0x003f, 0x0180, 0x0030, 0x0000, 0x0000, 0x0000, 0x0000, 0x0000,
   0x0000, 0x0000, 0x0000, 0x0400, 0x0080, 0xfe00, 0xf00f, 0xf007, 0x007f,
   0x0180, 0x0030, 0x0000, 0x0000, 0x0000, 0x0000, 0x0000, 0x0000, 0x0000,
   0x0000, 0xfc00, 0xffff, 0xffff, 0xffff, 0xffff, 0xffff, 0xffff, 0x003f,
   0x0000, 0x0000, 0x0000, 0xf000, 0x0003, 0x0000, 0x0000, 0x0000, 0x0400,
   0x0080, 0x0600, 0xf00c, 0xffff, 0xffff, 0xffff, 0x003f, 0x0000, 0x0000,
   0x0000, 0xf000, 0x0003, 0x0000, 0x0000, 0x0000, 0x0400, 0x0080, 0x0600,
   0xf00c, 0x1007, 0x0060, 0x0180, 0x0020, 0x0000, 0x0000, 0x0000, 0xfc00,
   0x001f, 0x0000, 0x0000, 0x0000, 0x0400, 0x0080, 0x0200, 0xf00e, 0x1007,
   0x0020, 0x0180, 0x0020, 0x0000, 0x0000, 0x0000, 0xff00, 0x007f, 0x0000,
   0x0000, 0x0000, 0x0400, 0x0080, 0x0200, 0xf00c, 0x1007, 0x0020, 0x0180,
   0x0020, 0x0000, 0x0000, 0x0000, 0xff00, 0x007f, 0x0000, 0x0000, 0x0000,
   0x0400, 0x0080, 0x0200, 0xf00c, 0x1007, 0x0020, 0x0080, 0x0020, 0x0000,
   0x0000, 0x0000, 0xff80, 0x00ff, 0x0000, 0x0000, 0x0000, 0x0400, 0x0080,
   0x0200, 0xf00c, 0x1007, 0x0020, 0x0180, 0x0020, 0x0000, 0x0000, 0x0000,
   0xffc0, 0x01ff, 0x0000, 0x0000, 0x0000, 0x0600, 0x0080, 0x0200, 0xf00c,
   0x1007, 0x0020, 0x0180, 0x0020, 0x0000, 0x0000, 0x0000, 0xffc0, 0x01ff,
   0x0000, 0x0000, 0x0000, 0x0600, 0x0080, 0x0200, 0xf00c, 0x1007, 0x0020,
   0x0180, 0x0020, 0x0000, 0x0000, 0x0000, 0xffe0, 0x03ff, 0x0000, 0x0000,
   0x0000, 0x0600, 0x0080, 0x0200, 0xf00c, 0x1007, 0x0020, 0x0180, 0x0020,
   0x0000, 0x0000, 0x0000, 0xffe0, 0x03ff, 0x0000, 0x0000, 0x0000, 0x0600,
   0x0080, 0x0200, 0xf00c, 0x1007, 0x0020, 0x0180, 0x0020, 0x0000, 0x0000,
   0x0000, 0xffe0, 0x03ff, 0x0000, 0x0000, 0x0000, 0x0600, 0x0080, 0x0200,
   0xf00c, 0x1007, 0x0020, 0x0180, 0x0020, 0x0000, 0x0000, 0x7fc0, 0xfff0,
   0x07ff, 0x01fe, 0x0000, 0x0000, 0x0600, 0x0080, 0x0200, 0xf00c, 0x1007,
   0x0020, 0x0180, 0x0020, 0x0000, 0x0000, 0xe078, 0xffff, 0xe7ff, 0x0fc7,
   0x0000, 0x0000, 0x0600, 0x0080, 0x0200, 0xf008, 0x1007, 0x0020, 0x0180,
   0x0020, 0x0000, 0x0000, 0xe078, 0xffff, 0xe7ff, 0x0fc7, 0x0000, 0x0000,
   0x0600, 0x0080, 0x0200, 0xf008, 0x1007, 0x0020, 0x0180, 0x0020, 0x0000,
   0x0000, 0x0004, 0xfff8, 0x3fff, 0x3800, 0x0000, 0x0000, 0x0200, 0x0080,
   0x0200, 0xf008, 0x1007, 0x0020, 0x0180, 0x0060, 0x0000, 0x0000, 0x0003,
   0xfff0, 0x07ff, 0xe000, 0x0000, 0x0000, 0x0200, 0x0080, 0x0200, 0xf00c,
   0x1007, 0x0020, 0x0180, 0x0060, 0x0000, 0x0000, 0x0003, 0xfff0, 0x07ff,
   0xe000, 0x0000, 0x0000, 0x0200, 0x0080, 0x0200, 0xf00c, 0x1007, 0x0060,
   0x0180, 0x0040, 0x0000, 0x8000, 0x0000, 0xfff0, 0x07ff, 0x8000, 0x0001,
   0x0000, 0x0200, 0x0080, 0x0200, 0xf008, 0x1007, 0x0020, 0x0180, 0x0040,
   0x0000, 0x6000, 0x0000, 0xfff0, 0x07ff, 0x0000, 0x0007, 0x0000, 0x0200,
   0x0080, 0x0200, 0xf008, 0x1007, 0x0020, 0x0180, 0x0040, 0x0000, 0x6000,
   0x0000, 0xfff0, 0x07ff, 0x0000, 0x0007, 0x0000, 0x0200, 0x0080, 0x0200,
   0xf008, 0x1007, 0x0060, 0x0180, 0x0040, 0x0000, 0x3f00, 0x0000, 0xfff0,
   0x07ff, 0x0000, 0xfffe, 0x000f, 0x0300, 0x0080, 0x0200, 0xf00c, 0x1007,
   0x0060, 0x0180, 0x0040, 0xfe00, 0x1fff, 0x0000, 0xfff0, 0x07ff, 0x0000,
   0x800c, 0xffff, 0x030f, 0x0080, 0x0200, 0xf00c, 0x1007, 0x0060, 0x0180,
   0x0040, 0xfe00, 0x1fff, 0x0000, 0xfff0, 0x07ff, 0x0000, 0x800c, 0xffff,
   0x030f, 0x0080, 0x0200, 0xf00c, 0x1007, 0x0060, 0x0180, 0xe0c0, 0x3fff,
   0x1800, 0x0000, 0xfff0, 0x07ff, 0x0000, 0x03f8, 0x8000, 0xffff, 0x0087,
   0x0200, 0xf008, 0x1007, 0x0060, 0x8180, 0x7fff, 0x0000, 0x0ff0, 0x0000,
   0xffe0, 0x03ff, 0x0000, 0xff18, 0x003f, 0xc000, 0xffff, 0x0603, 0xf008,
   0x1007, 0x0060, 0x8180, 0x7fff, 0x0000, 0x0ff0, 0x0000, 0xffe0, 0x03ff,
   0x0000, 0xff18, 0x003f, 0xc000, 0xffff, 0x0603, 0xf008, 0x1007, 0x0060,
   0xfffe, 0x0003, 0xfc00, 0x04ff, 0x0000, 0xffe0, 0x03ff, 0x0000, 0x0070,
   0xfff8, 0x0000, 0xc000, 0xc7ff, 0xffff, 0x1fff, 0xffe0, 0x0007, 0x0000,
   0x0fff, 0x07e0, 0x0000, 0xffc0, 0x01ff, 0x0000, 0x3fe0, 0xc000, 0x03ff,
   0x0000, 0x0000, 0xf008, 0x1fff, 0xffe0, 0x0007, 0x0000, 0x0fff, 0x07e0,
   0x0000, 0xffc0, 0x01ff, 0x0000, 0x3fe0, 0xc000, 0x03ff, 0x0000, 0x0000,
   0xf008, 0x1fff, 0x0000, 0x0000, 0xff80, 0xc007, 0x02ff, 0x0000, 0xff80,
   0x01ff, 0x0000, 0xf060, 0x007f, 0xff80, 0x001f, 0x0000, 0xf008, 0x1007,
   0x0000, 0xe000, 0x03ff, 0xff80, 0x0381, 0x0000, 0xff80, 0x00ff, 0x0000,
   0x0fc0, 0x7fe0, 0x0000, 0x3ffe, 0x0000, 0xf008, 0x1007, 0x0000, 0xe000,
   0x03ff, 0xff80, 0x0381, 0x0000, 0xff80, 0x00ff, 0x0000, 0x0fc0, 0x7fe0,
   0x0000, 0x3ffe, 0x0000, 0xf008, 0x1007, 0x0000, 0xfff8, 0x0001, 0x01ff,
   0x03fc, 0x0000, 0xfe00, 0x003f, 0x0000, 0xfcc0, 0xf007, 0x007f, 0xf800,
   0x00ff, 0xf008, 0x1007, 0xfe00, 0x001f, 0xfc00, 0xf003, 0x0107, 0x0000,
   0xfc00, 0x001f, 0x0000, 0x01c0, 0x01fc, 0x3ff0, 0x0000, 0x03e0, 0xf008,
   0x1007, 0xfe00, 0x001f, 0xfc00, 0xf003, 0x0107, 0x0000, 0xfc00, 0x001f,
   0x0000, 0x01c0, 0x01fc, 0x3ff0, 0x0000, 0x03e0, 0xf008, 0x1007, 0x0fc0,
   0x0000, 0x07f8, 0x1fc0, 0x01f0, 0x0000, 0xe000, 0x0007, 0x0000, 0x3f80,
   0xff00, 0xf000, 0x007f, 0x0000, 0xf008, 0x1007, 0x0000, 0xf800, 0x001f,
   0xc07f, 0x01bf, 0x0000, 0x8000, 0x0001, 0x0000, 0xe080, 0xc00f, 0x003f,
   0x3ff0, 0x0000, 0xf008, 0x1007, 0x0000, 0xf800, 0x001f, 0xc07f, 0x01bf,
   0x0000, 0x8000, 0x0001, 0x0000, 0xe080, 0xc00f, 0x003f, 0x3ff0, 0x0000,
   0xf008, 0x1007, 0x0000, 0x1ff0, 0xf000, 0xfe03, 0x0181, 0x0000, 0x8000,
   0x0001, 0x0000, 0x0080, 0x01f8, 0x0ff0, 0xf000, 0x001f, 0xf008, 0x1007,
   0xe000, 0x003f, 0x1fc0, 0x03f0, 0x0080, 0x0000, 0x8000, 0x0001, 0x0000,
   0x0080, 0x3f80, 0xfe00, 0x0003, 0x03f8, 0xf008, 0x1007, 0xe000, 0x003f,
   0x1fc0, 0x03f0, 0x0080, 0x0000, 0x8000, 0x0001, 0x0000, 0x0080, 0x3f80,
   0xfe00, 0x0003, 0x03f8, 0xf008, 0x1007, 0x7fc0, 0x8000, 0x00ff, 0x001f,
   0x0080, 0x0000, 0x8000, 0x0001, 0x0000, 0x0080, 0xf000, 0x0007, 0x01fe,
   0x0000, 0xf008, 0x1007, 0x00c0, 0xfc00, 0xf803, 0x0001, 0x0180, 0x0000,
   0x8000, 0x0001, 0x0000, 0x0080, 0x0000, 0x00fc, 0x7f80, 0x0000, 0xf008,
   0x1007, 0x00c0, 0xfc00, 0xf803, 0x0001, 0x0180, 0x0000, 0x8000, 0x0001,
   0x0000, 0x0080, 0x0000, 0x00fc, 0x7f80, 0x0000, 0xf008, 0x1007, 0x0000,
   0x07f0, 0x1f80, 0x0000, 0x0100, 0x0000, 0x8000, 0x0001, 0x0000, 0x0080,
   0x0000, 0x1fb8, 0xe000, 0x001f, 0xf008, 0x1007, 0xc000, 0x003f, 0x0cfc,
   0x0000, 0x0100, 0x0000, 0xc000, 0x0001, 0x0000, 0x0080, 0x0000, 0xf818,
   0x0007, 0x03f8, 0xf008, 0x1007, 0xc000, 0x003f, 0x0cfc, 0x0000, 0x0100,
   0x0000, 0xc000, 0x0001, 0x0000, 0x0080, 0x0000, 0xf818, 0x0007, 0x03f8,
   0xf008, 0x1007, 0xfe00, 0xf000, 0x180f, 0x0000, 0x0100, 0x0000, 0x4000,
   0x0003, 0x0000, 0x00c0, 0x0000, 0x001c, 0x00fe, 0x0300, 0xf008, 0x1007,
   0x07c0, 0x3f00, 0x1800, 0x0000, 0x0100, 0x0000, 0x4000, 0x0002, 0x0000,
   0x0040, 0x0000, 0x001c, 0x1fc0, 0x0000, 0xf008, 0x1007, 0x0000, 0x01f8,
   0x2800, 0x0000, 0x0200, 0x0000, 0x6000, 0x0002, 0x0000, 0x0040, 0x0000,
   0x0016, 0xf880, 0x0003, 0xf008, 0x1007, 0x0000, 0x01f8, 0x2800, 0x0000,
   0x0200, 0x0000, 0x6000, 0x0002, 0x0000, 0x0040, 0x0000, 0x0016, 0xf880,
   0x0003, 0xf008, 0x1007, 0xc000, 0x001f, 0x2800, 0x0000, 0x0200, 0x0000,
   0x2000, 0x0006, 0x0000, 0x0060, 0x0000, 0x0012, 0x0080, 0x007f, 0xf008,
   0x1007, 0xfe00, 0x0000, 0x6800, 0x0000, 0x0600, 0x0000, 0x3000, 0x0004,
   0x0000, 0x0020, 0x0000, 0xffff, 0xffff, 0xffff, 0xffff, 0x1007, 0xfe00,
   0x0000, 0x6800, 0x0000, 0x0600, 0x0000, 0x3000, 0x0004, 0x0000, 0x0020,
   0x0000, 0xffff, 0xffff, 0xffff, 0xffff, 0x3807, 0xffe0, 0xffff, 0xffff,
   0x0000, 0x0400, 0x0000, 0x1000, 0x000c, 0x0000, 0x0030, 0x0000, 0xcfff,
   0xffff, 0xbfff, 0xf7ff, 0xffff, 0xffff, 0xffff, 0xcc07, 0x0000, 0x0c00,
   0x0000, 0x1800, 0x0008, 0x0000, 0x0018, 0x8000, 0xc011, 0xffff, 0x0601,
   0xf000, 0xffff, 0xffff, 0xffff, 0xcc07, 0x0000, 0x0c00, 0x0000, 0x1800,
   0x0008, 0x0000, 0x0018, 0x8000, 0xc011, 0xffff, 0x0601, 0xf000, 0x0007,
   0x8060, 0xffff, 0x8807, 0x0001, 0x1800, 0x0000, 0x0800, 0x0018, 0x0000,
   0x000c, 0x8000, 0xf010, 0xffff, 0x0607, 0xf000, 0x0007, 0xe020, 0xffff,
   0x0c0f, 0x0003, 0x1000, 0x0000, 0x0400, 0x0030, 0x0000, 0x0006, 0xc000,
   0xd810, 0xffff, 0x060f, 0xf000, 0x0007, 0xe020, 0xffff, 0x0c0f, 0x0003,
   0x1000, 0x0000, 0x0400, 0x0030, 0x0000, 0x0006, 0xc000, 0xd810, 0xffff,
   0x060f, 0xf000, 0x0007, 0xb020, 0xffff, 0x0813, 0x0002, 0x2000, 0x0000,
   0x1e00, 0x006c, 0x0000, 0x0003, 0x6000, 0xc610, 0xffff, 0x0619, 0xe000,
   0x0007, 0x1860, 0xffff, 0x0821, 0x0006, 0x4000, 0x0000, 0xf980, 0x008f,
   0x8000, 0x0001, 0x2000, 0x8210, 0xffff, 0x0630, 0xe000, 0x0007, 0x1860,
   0xffff, 0x0821, 0x0006, 0x4000, 0x0000, 0xf980, 0x008f, 0x8000, 0x0001,
   0x2000, 0x8210, 0xffff, 0x0630, 0xe000, 0x0007, 0x0c60, 0xffff, 0x0861,
   0x000c, 0x8000, 0x0001, 0xedc0, 0x0193, 0xe000, 0x0000, 0x1000, 0x8110,
   0xffff, 0x0660, 0xe000, 0x0007, 0x0660, 0x7ffe, 0x0cc0, 0x0008, 0x0000,
   0x0007, 0xa730, 0x07b6, 0x3800, 0x0000, 0x1800, 0x0090, 0x7ffe, 0x06c0,
   0xe000, 0x0007, 0x0660, 0x7ffe, 0x0cc0, 0x0008, 0x0000, 0x0007, 0xa730,
   0x07b6, 0x3800, 0x0000, 0x1800, 0x0090, 0x7ffe, 0x06c0, 0xe000, 0x0007,
   0x0360, 0x7ffe, 0x0980, 0x0018, 0x0000, 0x001c, 0x921c, 0x3c64, 0x0f00,
   0x0000, 0x0c00, 0x00d0, 0x7ffc, 0x0680, 0xe000, 0x0007, 0x0360, 0x3ffc,
   0x0b80, 0x0030, 0x0000, 0xe7e0, 0x9607, 0xe064, 0x01ff, 0x0000, 0x0600,
   0x01d0, 0x3ffc, 0x07e0, 0xe000, 0x0007, 0x0360, 0x3ffc, 0x0b80, 0x0030,
   0x0000, 0xe7e0, 0x9607, 0xe064, 0x01ff, 0x0000, 0x0600, 0x01d0, 0x3ffc,
   0x07e0, 0xe000, 0x0007, 0x07a0, 0x3ff8, 0x0fc0, 0x0060, 0x0000, 0x3e00,
   0x9c00, 0x003c, 0x0000, 0x0000, 0x0200, 0x07f0, 0x3ffc, 0x07f0, 0xe000,
   0x0007, 0x1fe0, 0x1ff8, 0x0ff0, 0x0040, 0x0000, 0x0000, 0x9800, 0x000c,
   0x0000, 0x0000, 0x0100, 0x1ff0, 0x3ffc, 0x07fc, 0xe000, 0x0007, 0x1fe0,
   0x1ff8, 0x0ff0, 0x0040, 0x0000, 0x0000, 0x9800, 0x000c, 0x0000, 0x0000,
   0x0100, 0x1ff0, 0x3ffc, 0x07fc, 0xe000, 0x0007, 0x7fe0, 0x3ffc, 0x0ffc,
   0x0080, 0x0000, 0x0000, 0xf000, 0x0007, 0x0000, 0x0000, 0x0180, 0x7fb0,
   0x7ffe, 0x07ff, 0xe000, 0x0007, 0xffe0, 0xffff, 0x0fff, 0x0180, 0x0000,
   0x0000, 0x0000, 0x0000, 0x0000, 0x0000, 0x00c0, 0xfff0, 0xffff, 0x07ff,
   0xe000, 0x0007, 0xffe0, 0xffff, 0x0fff, 0x0180, 0x0000, 0x0000, 0x0000,
   0x0000, 0x0000, 0x0000, 0x00c0, 0xfff0, 0xffff, 0x07ff, 0xe000, 0x0007,
   0xffe0, 0xffff, 0x0fff, 0x0300, 0x0000, 0x0000, 0x0000, 0x0000, 0x0000,
   0x0000, 0x0060, 0xfff0, 0xffff, 0x07ff, 0xe000, 0x0007, 0xffe0, 0xffff,
   0x0fff, 0x0600, 0x0000, 0x0000, 0x0000, 0x0000, 0x0000, 0x0000, 0x0030,
   0xfff0, 0xffff, 0x07ff, 0xe000, 0x0007, 0xffe0, 0xffff, 0x0fff, 0x0600,
   0x0000, 0x0000, 0x0000, 0x0000, 0x0000, 0x0000, 0x0030, 0xfff0, 0xffff,
   0x07ff, 0xe000, 0x0003, 0xffe0, 0xffff, 0x0fff, 0x1800, 0x0000, 0x0000,
   0x0000, 0x0000, 0x0000, 0x0000, 0x0018, 0xfff0, 0xffff, 0x07ff, 0xe000,
   0x0003, 0xffe0, 0xffff, 0x0fff, 0x3000, 0x0000, 0x0000, 0x0000, 0x0000,
   0x0000, 0x0000, 0x000c, 0xfffc, 0xffff, 0xffff, 0xffff, 0x0003, 0xffe0,
   0xffff, 0x0fff, 0x3000, 0x0000, 0x0000, 0x0000, 0x0000, 0x0000, 0x0000,
   0x000c, 0xfffc, 0xffff, 0xffff, 0xffff, 0xffff, 0xffff, 0xffff, 0xffff,
   0x7fff, 0x0000, 0x0000, 0x0000, 0x0000, 0x0000, 0x8000, 0xffff, 0xffff,
   0xffff, 0xffff, 0xffff, 0x002f, 0xffe0, 0xffff, 0x0fff, 0xf000, 0x0001,
   0x0000, 0x0000, 0x0000, 0x0000, 0xc000, 0x0007, 0xfff0, 0xffff, 0x07ff,
   0xe000, 0x002f, 0xffe0, 0xffff, 0x0fff, 0xf000, 0x0001, 0x0000, 0x0000,
   0x0000, 0x0000, 0xc000, 0x0007, 0xfff0, 0xffff, 0x07ff, 0xe000, 0x0003,
   0xffe0, 0xffff, 0x0fff, 0x2000, 0x0002, 0x0000, 0x0000, 0x0000, 0x0000,
   0x6000, 0x0004, 0xfff0, 0xffff, 0x07ff, 0xe000, 0x0007, 0xffe0, 0xffff,
   0x0fff, 0x3000, 0x000c, 0x0000, 0x0000, 0x0000, 0x0000, 0x3000, 0x0004,
   0xfff0, 0xffff, 0x07ff, 0xe000, 0x0007, 0xffe0, 0xffff, 0x0fff, 0x3000,
   0x000c, 0x0000, 0x0000, 0x0000, 0x0000, 0x3000, 0x0004, 0xfff0, 0xffff,
   0x07ff, 0xe000, 0x0007, 0xffe0, 0xffff, 0x0fff, 0x3000, 0x0018, 0x0000,
   0x0000, 0x0000, 0x0000, 0x0400, 0x0004, 0xfff0, 0xffff, 0x07ff, 0xe000,
   0x0007, 0xffe0, 0xffff, 0x0fff, 0x3000, 0x0030, 0x0000, 0x0000, 0x0000,
   0x0000, 0x0600, 0x0004, 0x7ff0, 0x7ffe, 0x07fe, 0xe000, 0x0007, 0xffe0,
   0xffff, 0x0fff, 0x3000, 0x0030, 0x0000, 0x0000, 0x0000, 0x0000, 0x0600,
   0x0004, 0x7ff0, 0x7ffe, 0x07fe, 0xe000, 0x0007, 0x7fe0, 0x7ffe, 0x0ffc,
   0x3000, 0x00c0, 0x0000, 0x0000, 0x0000, 0x0000, 0x0180, 0x0004, 0x1ff0,
   0x3ffc, 0x07fc, 0xe000, 0x0007, 0x1fe0, 0x1ffc, 0x0ff0, 0x3000, 0x0180,
   0x0000, 0x0000, 0x0000, 0x0000, 0x00c0, 0x0004, 0x07f0, 0x1ff8, 0x07f0,
   0xe000, 0x0007, 0x1fe0, 0x1ffc, 0x0ff0, 0x3000, 0x0180, 0x0000, 0x0000,
   0x0000, 0x0000, 0x00c0, 0x0004, 0x07f0, 0x1ff8, 0x07f0, 0xe000, 0x0007,
   0x0fe0, 0x1ff8, 0x0fc0, 0x3000, 0x0700, 0x0000, 0x0000, 0x0000, 0x0000,
   0x0030, 0x0004, 0x03d0, 0x3ff8, 0x05c0, 0xe000, 0x0007, 0x0360, 0x3ff8,
   0x0f80, 0x3000, 0x1c00, 0x0000, 0x0000, 0x0000, 0x0000, 0x001c, 0x0004,
   0x0090, 0x3ffc, 0x0480, 0xe000, 0x0007, 0x0360, 0x3ff8, 0x0f80, 0x3000,
   0x1c00, 0x0000, 0x0000, 0x0000, 0x0000, 0x001c, 0x0004, 0x0090, 0x3ffc,
   0x0480, 0xe000, 0x0007, 0x0360, 0x7ffc, 0x0980, 0x3000, 0x3000, 0x0000,
   0x0000, 0x0000, 0x0000, 0x0007, 0x0004, 0x0190, 0x7ffe, 0x04c0, 0xe000,
   0x0007, 0x0620, 0x7ffc, 0x08c0, 0x3000, 0xc000, 0x0001, 0x0000, 0x0000,
   0xc000, 0x0001, 0x0004, 0x0110, 0x7ffe, 0x0460, 0xe000, 0x0007, 0x0620,
   0x7ffc, 0x08c0, 0x3000, 0xc000, 0x0001, 0x0000, 0x0000, 0xc000, 0x0001,
   0x0004, 0x0110, 0x7ffe, 0x0460, 0xe000, 0x0007, 0x0c20, 0xfffe, 0x0c61,
   0x3000, 0x8000, 0x0007, 0x0000, 0x0000, 0xf000, 0x0000, 0x0004, 0x8610,
   0xffff, 0x0430, 0xf000, 0x0007, 0x1860, 0xffff, 0x0c31, 0x3000, 0x0000,
   0x0039, 0x0000, 0x0000, 0xde00, 0x0000, 0x0004, 0x8c10, 0xffff, 0x0419,
   0xf000, 0x0007, 0x1860, 0xffff, 0x0c31, 0x3000, 0x0000, 0x0039, 0x0000,
   0x0000, 0xde00, 0x0000, 0x0004, 0x8c10, 0xffff, 0x0419, 0xf000, 0x000f,
   0x3020, 0xffff, 0x0c1b, 0x3000, 0x0000, 0x01e1, 0x0000, 0x0000, 0xc7c0,
   0x0000, 0x0004, 0xd810, 0xffff, 0x040d, 0xf000, 0x000f, 0xe020, 0xffff,
   0x0c0f, 0x3000, 0x0000, 0x0f01, 0x0000, 0x0000, 0xc078, 0x0000, 0x0004,
   0xf010, 0xffff, 0x0407, 0xf000, 0x000f, 0xe020, 0xffff, 0x0c0f, 0x3000,
   0x0000, 0x0f01, 0x0000, 0x0000, 0xc078, 0x0000, 0x0004, 0xf010, 0xffff,
   0x0407, 0xf000, 0x000f, 0xc020, 0xffff, 0x0c07, 0x3000, 0x0000, 0xf801,
   0x0003, 0xe000, 0xc00f, 0x0000, 0x0004, 0xc010, 0xffff, 0x0401, 0xf800,
   0x001f, 0x8060, 0xffff, 0x0c03, 0x3000, 0x0000, 0xc001, 0x007f, 0xffe0,
   0xc003, 0xfc00, 0xffff, 0xffff, 0xffff, 0xffff, 0xffff, 0x001f, 0x8060,
   0xffff, 0x0c03, 0x3000, 0x0000, 0xc001, 0x007f, 0xffe0, 0xc003, 0xfc00,
   0xffff, 0xffff, 0xffff, 0xffff, 0xffff, 0xffff, 0xffff, 0xffff, 0xffff,
   0xffff, 0xffff, 0xffff, 0xffff, 0xffff, 0xffff, 0xffff, 0xffff, 0xffff,
   0xffff, 0xffff, 0xffff, 0xffff, 0xffff, 0x03bb, 0x0c00, 0x0000, 0x0000,
   0x0000, 0x0000, 0x0000, 0x0000, 0x0000, 0x0000, 0x0010, 0x0180, 0x0400,
   0xfc00, 0xffff, 0xffff, 0x03bb, 0x0c00, 0x0000, 0x0000, 0x0000, 0x0000,
   0x0000, 0x0000, 0x0000, 0x0000, 0x0010, 0x0180, 0x0400, 0xfc00, 0x003f,
   0x0020, 0x0180, 0x0c00, 0x0000, 0x0000, 0x0000, 0x0000, 0x0000, 0x0000,
   0x0000, 0x0000, 0x0010, 0x0180, 0x0400, 0xfc00, 0x007f, 0x0020, 0x0180,
   0x0c00, 0x0000, 0x0000, 0x0000, 0x0000, 0x0000, 0x0000, 0x0000, 0x0000,
   0x0010, 0x0180, 0x0400, 0xfe00, 0x007f, 0x0020, 0x0180, 0x0c00, 0x0000,
   0x0000, 0x0000, 0x0000, 0x0000, 0x0000, 0x0000, 0x0000, 0x0010, 0x0180,
   0x0400, 0xfe00, 0x007f, 0x0020, 0x0180, 0x0c00, 0x0000, 0x0000, 0x0000,
   0x0000, 0x0000, 0x0000, 0x8000, 0x0001, 0x0010, 0x0180, 0x0400, 0xff00,
   0x00ff, 0x0020, 0x0180, 0x0c00, 0x1300, 0x3f80, 0x021f, 0x4100, 0x0060,
   0x4180, 0xe1fe, 0x0607, 0x0010, 0x0100, 0x0400, 0xff00, 0x00ff, 0x0020,
   0x0180, 0x0c00, 0x1300, 0x3f80, 0x021f, 0x4100, 0x0060, 0x4180, 0xe1fe,
   0x0607, 0x0010, 0x0100, 0x0400, 0xff00, 0x01ff, 0x0020, 0x0180, 0x0c00,
   0x11f8, 0x9f88, 0x3631, 0x6130, 0x0070, 0x4180, 0x3030, 0x060c, 0x0030,
   0x0100, 0x0400, 0xff80, 0x01ff, 0x0020, 0x0180, 0x0c00, 0x1008, 0x8208,
   0x7661, 0x3130, 0x0070, 0x4180, 0x1020, 0x0f00, 0x0030, 0x0100, 0x0400,
   0xffc0, 0x01ff, 0x0020, 0x0180, 0x0c00, 0x1008, 0x8208, 0x7661, 0x3130,
   0x0070, 0x4180, 0x1020, 0x0f00, 0x0030, 0x0100, 0x0400, 0xffc0, 0x03ff,
   0x0020, 0x0180, 0x0c00, 0x1008, 0x8208, 0xf661, 0x1931, 0x00d0, 0x4180,
   0x1820, 0x0900, 0x0030, 0x0100, 0x0400, 0xffe0, 0x07ff, 0x0020, 0x0180,
   0x0c00, 0x1018, 0x0218, 0xb661, 0x0d33, 0x00d8, 0x4180, 0x1820, 0x1900,
   0x0030, 0x0100, 0x0400, 0xfff0, 0x07ff, 0x0020, 0x0180, 0x0c00, 0x1018,
   0x0218, 0xb661, 0x0d33, 0x00d8, 0x4180, 0x1820, 0x1900, 0x0030, 0x0100,
   0x0400, 0xfff0, 0x0fff, 0x0020, 0x0180, 0x0c00, 0x3078, 0x0208, 0x3631,
   0x1f36, 0x00d8, 0x4100, 0x1820, 0x1f80, 0x0030, 0x0100, 0x0400, 0xfffc,
   0x1fff, 0x0020, 0x0180, 0x0c00, 0x3018, 0x0208, 0x361f, 0x333c, 0x01fc,
   0x6300, 0x1020, 0x32c4, 0x0030, 0x0100, 0x0400, 0xfffe, 0x1fff, 0x0020,
   0x0180, 0x0c00, 0x3018, 0x0208, 0x361f, 0x333c, 0x01fc, 0x6300, 0x1020,
   0x32c4, 0x0030, 0x0100, 0x0400, 0xfffe, 0x3fff, 0x0020, 0x0180, 0x0c00,
   0x6018, 0x020c, 0x3613, 0x6138, 0x010c, 0x3600, 0xf020, 0x30c7, 0x0030,
   0x0100, 0x8400, 0xffff, 0xffff, 0x0021, 0x0180, 0x0c00, 0xe018, 0x0207,
   0x3631, 0x6130, 0x0304, 0x1c00, 0xc020, 0x2003, 0x0030, 0x0100, 0xe400,
   0xffff, 0xffff, 0x0021, 0x0180, 0x0c00, 0xe018, 0x0207, 0x3631, 0x6130,
   0x0304, 0x1c00, 0xc020, 0x2003, 0x0030, 0x0100, 0xe400, 0xffff, 0xffff,
   0x0023, 0x0180, 0x0c00, 0x8018, 0x0003, 0x0000, 0x0000, 0x0000, 0x0000,
   0x0000, 0x0000, 0x0030, 0x0100, 0xfc00, 0xffff, 0xffff, 0x002f, 0x0180,
   0x0c00, 0x0000, 0x0000, 0x0000, 0x0000, 0x0000, 0x0000, 0x0000, 0x0000,
   0x0030, 0x0100, 0xfe00, 0xffff, 0xffff, 0x002f, 0x0180, 0x0c00, 0x0000,
   0x0000, 0x0000, 0x0000, 0x0000, 0x0000, 0x0000, 0x0000, 0x0030, 0x0100,
   0xfe00, 0xffff, 0xffff, 0x003f, 0x0180, 0x0c00, 0x0000, 0x0000, 0x0000,
   0x0000, 0x0000, 0x0000, 0x0000, 0x0000, 0x0030, 0x0100, 0xffc0, 0xffff,
   0xffff, 0x01ff, 0x0180, 0x0c00, 0x0000, 0x0000, 0x0000, 0x0000, 0x0000,
   0x0000, 0x0000, 0x0000, 0x0030, 0x3f80, 0xfffc, 0xffff, 0xffff, 0x01ff,
   0x0180, 0x0c00, 0x0000, 0x0000, 0x0000, 0x0000, 0x0000, 0x0000, 0x0000,
   0x0000, 0x0030, 0x3f80, 0xfffc, 0xffff, 0xffff, 0x3fff, 0x0180, 0x0c00,
   0xe248, 0xffff, 0xffff, 0xffff, 0xffff, 0xffff, 0xffff, 0xffff, 0xffff,
   0xffff, 0xffff, 0xffff, 0xffff, 0xffff, 0xffff, 0xffff, 0xffff, 0xffff,
   0xffff, 0xffff, 0xffff, 0xffff, 0xffff, 0xffff, 0xffff, 0xffff, 0xffff,
   0xffff, 0xffff, 0xffff, 0xffff, 0xffff, 0xffff, 0xffff, 0xffff, 0xffff,
   0xffff, 0xffff, 0xffff, 0xffff, 0xffff, 0xffff, 0xffff, 0xffff, 0xffff,
   0xffff, 0xffff, 0xffff, 0xffff, 0xffff, 0xffff, 0xffff, 0xffff, 0xffff,
   0xffff, 0xffff, 0xffff, 0xffff, 0xffff, 0xffff };
